<svg xmlns="http://www.w3.org/2000/svg" xmlns:xlink="http://www.w3.org/1999/xlink" fill="#ffffff" enable-background="new 0 0 32 32" version="1.1" xml:space="preserve" width="32" height="32"><rect id="backgroundrect" width="100%" height="100%" x="0" y="0" fill="none" stroke="none"/><g class="currentLayer" style=""><title>Layer 1</title><g id="Outline_copy_2" class="selected" fill="#ffffff" fill-opacity="1" stroke="#ffffff" stroke-opacity="1" opacity="1"><g id="svg_1" fill="#ffffff" fill-opacity="1" stroke="#ffffff" stroke-opacity="1" opacity="1"><path d="M16.411,24.475v-1.31c1.298-0.214,1.991-1.147,1.991-2.142c0-1.121-0.655-1.777-1.953-2.306    c-1.096-0.454-1.562-0.781-1.562-1.437c0-0.504,0.365-1.083,1.336-1.083c0.806,0,1.323,0.277,1.587,0.428l0.315-0.832    c-0.365-0.214-0.882-0.416-1.638-0.441v-1.222h-0.781v1.273c-1.159,0.189-1.902,0.983-1.902,2.029    c0,1.096,0.794,1.676,2.079,2.179c0.932,0.378,1.424,0.806,1.424,1.5c0,0.718-0.605,1.235-1.499,1.235    c-0.706,0-1.361-0.24-1.815-0.542l-0.302,0.844c0.441,0.315,1.197,0.542,1.928,0.554v1.273H16.411z" id="svg_2" fill="#ffffff" fill-opacity="1" stroke="#ffffff" stroke-opacity="1" opacity="1"/><path d="M1.159,10.497c-0.005,0.003-0.009,0.006-0.014,0.01c-0.17,0.114,0.328,0.419,0.664,0.452    c0.02,0.004,0.043,0.011,0.059,0.011c9.612,0,19.225,0,28.837,0c0.298,0,0.161-0.228,0.01-0.33    c-4.806-3.222-9.612-6.444-14.419-9.667c-0.162-0.108-0.54-0.262-0.732-0.133C10.767,4.055,5.971,7.27,1.175,10.486    C1.168,10.489,1.164,10.493,1.159,10.497z M16.17,1.441c2.316,1.553,4.632,3.105,6.948,4.658c1.659,1.112,3.317,2.224,4.975,3.336    c0.482,0.323,0.987,0.775,1.517,1.017c0.036,0.017,0.058,0.026,0.089,0.039c-2.297,0.214-4.753-0.025-7.043-0.025    c-4.329,0-8.657,0-12.986,0c-2.321,0-4.641,0-6.962,0C7.196,7.458,11.683,4.45,16.17,1.441z" id="svg_3" fill="#ffffff" fill-opacity="1" stroke="#ffffff" stroke-opacity="1" opacity="1"/><path d="M0.002,27.986c0,1.007,0,2.014,0,3.021c0,0.198,0.436,0.287,0.731,0.248c10.294,0,20.588,0,30.882,0    c0.083,0,0.383-0.021,0.383-0.16c0-1.007,0-2.014,0-3.021c0-0.223-0.484-0.248-0.613-0.248c-10.333,0-20.667,0-31,0    C0.302,27.826,0.002,27.847,0.002,27.986z M0.783,28.234c0.51-0.261,1.853,0,2.416,0c3.558,0,7.116,0,10.674,0    c5.707,0,11.413,0,17.12,0c-0.026,0.688-0.133,1.493,0.01,2.12c0.125,0.552,0.278,0.461,0.216,0.493c-0.51,0.261-1.853,0-2.416,0    c-3.558,0-7.116,0-10.674,0c-5.707,0-11.413,0-17.12,0c0.026-0.688,0.133-1.493-0.01-2.12C0.873,28.174,0.721,28.266,0.783,28.234    z" id="svg_4" fill="#ffffff" fill-opacity="1" stroke="#ffffff" stroke-opacity="1" opacity="1"/><path d="M3.374,13.12c-0.033,0-0.183,0.025-0.183,0.09c0,3.958,0,7.917,0,11.875c0,0.3,0.546,0.397,0.769,0.397    c1.007,0,2.014,0,3.021,0c0.007,0,0.007-0.002,0.013-0.002c0.027-0.001,0.047-0.006,0.068-0.011    c0.017-0.004,0.04-0.006,0.05-0.012c0.031-0.015,0.051-0.035,0.051-0.064c0-3.958,0-7.917,0-11.875c0-0.3-0.546-0.397-0.769-0.397    C5.388,13.12,4.381,13.12,3.374,13.12z M4.044,13.607c0.133-0.107,0.841,0,0.979,0c0.396,0,0.793,0,1.189,0    c0,3.796,0,7.592,0,11.388c-0.69,0-1.379,0-2.069,0c0-2.536,0-5.073,0-7.609c0-0.876-0.39-2.857,0-3.659    C4.212,13.585,4.145,13.526,4.044,13.607z" id="svg_5" fill="#ffffff" fill-opacity="1" stroke="#ffffff" stroke-opacity="1" opacity="1"/><path d="M8.056,13.12c-0.033,0-0.183,0.025-0.183,0.089c0,3.958,0,7.917,0,11.875c0,0.3,0.546,0.397,0.769,0.397    c1.007,0,2.014,0,3.021,0c0.007,0,0.007-0.002,0.014-0.002c0.027-0.001,0.047-0.006,0.068-0.011    c0.017-0.004,0.04-0.006,0.05-0.012c0.031-0.015,0.051-0.035,0.051-0.064c0-3.958,0-7.917,0-11.875c0-0.3-0.546-0.397-0.769-0.397    C10.07,13.12,9.063,13.12,8.056,13.12z M8.726,13.607c0.133-0.107,0.841,0,0.979,0c0.396,0,0.793,0,1.189,0    c0,3.796,0,7.592,0,11.388c-0.69,0-1.38,0-2.069,0c0-2.536,0-5.073,0-7.609c0-0.876-0.39-2.857,0-3.659    C8.894,13.586,8.827,13.526,8.726,13.607z" id="svg_6" fill="#ffffff" fill-opacity="1" stroke="#ffffff" stroke-opacity="1" opacity="1"/><path d="M20.734,13.153c-0.141,0-0.598,0.064-0.598,0.283c0,3.958,0,7.917,0,11.875c0,0.139,0.317,0.137,0.391,0.137    c0.956,0,1.913,0,2.869,0c0.293,0.033,0.75-0.071,0.75-0.283c0-3.958,0-7.917,0-11.875c0-0.139-0.317-0.137-0.391-0.137    C22.747,13.153,21.741,13.153,20.734,13.153z M21.125,25.061c0.006-0.027,0.013-0.055,0-0.106c-0.263-1.075,0-2.561,0-3.659    c0-2.574,0-5.149,0-7.723c0.453,0,0.906,0,1.359,0c0.052,0,0.403-0.031,0.672-0.033c-0.006,0.027-0.013,0.055,0,0.106    c0.263,1.075,0,2.561,0,3.659c0,2.574,0,5.149,0,7.723c-0.453,0-0.906,0-1.359,0C21.745,25.028,21.394,25.059,21.125,25.061z" id="svg_7" fill="#ffffff" fill-opacity="1" stroke="#ffffff" stroke-opacity="1" opacity="1"/><path d="M25.319,13.164c-0.108,0-0.506,0.003-0.506,0.185c0,3.958,0,7.917,0,11.875c0,0.18,0.387,0.215,0.494,0.215    c0.966,0,1.931,0,2.896,0c0.285,0.037,0.63-0.02,0.63-0.185c0-3.958,0-7.917,0-11.875c0-0.18-0.387-0.215-0.494-0.215    C27.333,13.164,26.326,13.164,25.319,13.164z M27.834,25.039c-0.674,0-1.348,0-2.021,0c0-3.825,0-7.65,0-11.475    c0.674,0,1.348,0,2.021,0C27.834,17.388,27.834,21.213,27.834,25.039z" id="svg_8" fill="#ffffff" fill-opacity="1" stroke="#ffffff" stroke-opacity="1" opacity="1"/><path d="M12.835,7.392c2.121,0,4.241,0,6.362,0c1.183,0,1.149-0.799-0.033-0.799c-2.121,0-4.241,0-6.362,0    C11.62,6.592,11.654,7.392,12.835,7.392z" id="svg_9" fill="#ffffff" fill-opacity="1" stroke="#ffffff" stroke-opacity="1" opacity="1"/></g></g></g></svg>