<?xml version="1.0" encoding="iso-8859-1"?>
<!-- Generator: Adobe Illustrator 19.0.0, SVG Export Plug-In . SVG Version: 6.00 Build 0)  -->
<svg version="1.1" id="Capa_1" xmlns="http://www.w3.org/2000/svg" xmlns:xlink="http://www.w3.org/1999/xlink" x="0px" y="0px"
	 viewBox="0 0 512.085 512.085" style="enable-background:new 0 0 512.085 512.085;" xml:space="preserve">
<g>
	<path style="fill:#4ABAA5;" d="M320.085,454.443c9.6,0,17.067-7.467,17.067-17.067V263.509c0-9.6-7.467-17.067-17.067-17.067
		c-9.6,0-17.067,7.467-17.067,17.067v173.867C303.019,446.976,310.485,454.443,320.085,454.443z"/>
	<path style="fill:#4ABAA5;" d="M160.085,476.843c6.4,0,12.8-3.2,16-9.6l93.867-194.133c4.267-8.533,1.067-19.2-8.533-23.467
		c-8.533-4.267-19.2-1.067-23.467,8.533l-93.867,194.133c-4.267,8.533-1.067,19.2,8.533,23.467
		C154.752,476.843,156.885,476.843,160.085,476.843z"/>
	<path style="fill:#4ABAA5;" d="M481.152,476.843c2.133,0,5.333-1.067,7.467-2.133c8.533-4.267,11.733-14.933,8.533-23.467
		l-93.867-194.133c-4.267-8.533-14.933-11.733-23.467-8.533c-8.533,4.267-11.733,14.933-8.533,23.467l93.867,194.133
		C468.352,473.643,474.752,476.843,481.152,476.843z"/>
</g>
<g>
	<path style="fill:#F3705A;" d="M148.352,322.176h343.467c10.667,0,20.267-8.533,20.267-20.267v-3.2
		c0-10.667-8.533-20.267-20.267-20.267H148.352c-10.667,0-20.267,8.533-20.267,20.267v3.2
		C129.152,312.576,137.685,322.176,148.352,322.176z"/>
	<path style="fill:#F3705A;" d="M148.352,42.709h343.467c10.667,0,20.267-8.533,20.267-20.267v-2.133
		c0-10.667-8.533-20.267-20.267-20.267H148.352c-10.667,0-20.267,8.533-20.267,20.267v3.2
		C129.152,34.176,137.685,42.709,148.352,42.709z"/>
</g>
<rect x="150.485" y="42.709" style="fill:#E8EAE9;" width="340.267" height="235.733"/>
<g>
	<rect x="289.152" y="211.243" style="fill:#ADB3BA;" width="157.867" height="28.8"/>
	<rect x="194.219" y="147.243" style="fill:#ADB3BA;" width="252.8" height="28.8"/>
	<rect x="194.219" y="82.176" style="fill:#ADB3BA;" width="252.8" height="28.8"/>
</g>
<path style="fill:#FFD15C;" d="M165.419,406.443c0,0-3.2,13.867-3.2,21.333c0,6.4,1.067,11.733,2.133,13.867
	c1.067,2.133,2.133,1.067,2.133,1.067l-2.133,3.2c0,0-5.333,2.133-6.4,6.4l2.133,3.2c0,0-3.2,2.133-2.133,6.4l6.4-3.2
	c0,0,3.2-1.067,5.333-2.133c2.133-2.133,8.533-6.4,8.533-9.6c1.067-3.2,2.133-10.667,4.267-12.8
	c1.067-2.133,2.133-18.133-1.067-25.6c-3.2-7.467-3.2-7.467-3.2-7.467L165.419,406.443L165.419,406.443z"/>
<g>
	<path style="fill:#415A6B;" d="M147.285,194.176l9.6,1.067c0,0,7.467,5.333,9.6,13.867s3.2,20.267,2.133,26.667
		c-1.067,6.4-3.2,36.267-3.2,42.667c0,6.4,4.267,17.067,3.2,20.267c-1.067,4.267,2.133,18.133,2.133,18.133s3.2,28.8,4.267,34.133
		c1.067,5.333,3.2,11.733,3.2,18.133c0,6.4,4.267,42.667,4.267,42.667s-1.067-2.133-5.333-3.2s-13.867,0-13.867,0
		s-14.933-108.8-14.933-109.867c0-1.067,14.933-61.867,14.933-61.867L147.285,194.176z"/>
	<path style="fill:#415A6B;" d="M147.285,512.043H95.019c1.067-11.733,2.133-27.733,2.133-27.733s-2.133,7.467-5.333,16
		c-1.067,2.133-2.133,6.4-4.267,11.733H32.085c2.133-10.667,4.267-22.4,4.267-22.4c-1.067-5.333,1.067-25.6,1.067-25.6
		c-2.133-8.533,1.067-49.067,1.067-49.067l-3.2-33.067l70.4-45.867l50.133,8.533l4.267,60.8c0,0,0,0,1.067,10.667
		c1.067,10.667-2.133,36.267-5.333,51.2C155.819,473.643,151.552,492.843,147.285,512.043z"/>
</g>
<polyline style="fill:#CED6E0;" points="122.752,174.976 84.352,174.976 145.152,325.376 163.285,231.509 134.485,174.976 
	122.752,174.976 "/>
<path style="fill:#FFD15C;" d="M89.685,119.509c0,0-1.067,14.933,1.067,24.533l-8.533,22.4l44.8,24.533l4.267-26.667v-10.667
	c0,0,12.8-12.8,13.867-32c1.067-19.2,0-18.133,0-18.133l0,0c0,0,2.133-21.333-7.467-29.867c-8.533-8.533-34.133-7.467-40.533-3.2
	C91.819,75.776,89.685,119.509,89.685,119.509z"/>
<path style="fill:#F05540;" d="M118.485,188.843l1.067,4.267c0,0,1.067,11.733,2.133,19.2c1.067,7.467,7.467,68.267,7.467,68.267
	l12.8,19.2l4.267-7.467c0,0,0-38.4-2.133-50.133s-7.467-29.867-8.533-34.133c-1.067-4.267-4.267-17.067-4.267-17.067
	S123.819,184.576,118.485,188.843z"/>
<path style="fill:#F3705A;" d="M131.285,182.443c0,0,1.067,5.333,0,8.533c0,0-10.667-3.2-12.8,1.067c0,0-4.267-7.467-9.6-7.467
	l12.8-9.6h9.6V182.443"/>
<path style="fill:#F7B64C;" d="M90.752,144.043c0,0,12.8,13.867,23.467,16c10.667,1.067,18.133-6.4,18.133-6.4v10.667l-2.133,9.6
	C120.619,170.709,98.219,161.109,90.752,144.043z"/>
<path style="fill:#F3F3F3;" d="M122.752,174.976c0,0,8.533,3.2,9.6,9.6c1.067,6.4,2.133,7.467,2.133,7.467s-1.067-13.867-1.067-16
	c0-2.133,0-17.067-1.067-19.2s0,0,0,0S131.285,165.376,122.752,174.976"/>
<g>
	
		<ellipse transform="matrix(0.1241 -0.9923 0.9923 0.1241 14.7248 245.1564)" style="fill:#FFD15C;" cx="146.225" cy="114.238" rx="11.734" ry="5.333"/>
	
		<ellipse transform="matrix(0.1241 0.9923 -0.9923 0.1241 189.3114 14.0948)" style="fill:#FFD15C;" cx="86.672" cy="114.278" rx="11.734" ry="5.333"/>
</g>
<path style="fill:#415A6B;" d="M146.219,112.043L146.219,112.043c-1.067-2.133-1.067-17.067-3.2-22.4c0-2.133-2.133-4.267-3.2-6.4
	c-2.133-3.2-6.4-5.333-10.667-4.267c-4.267,1.067-11.733,2.133-20.267,0c-3.2-1.067-5.333,0-8.533,1.067
	c-1.067,2.133-3.2,3.2-4.267,5.333c-2.133,3.2-4.267,19.2-5.333,26.667h-1.067c0-2.133,0-5.333-3.2-8.533
	c0,0-1.067-19.2,4.267-29.867s25.6-16,34.133-13.867c8.533,3.2,18.133,9.6,21.333,18.133c0,0,2.133,8.533,2.133,17.067
	C148.352,102.443,146.219,109.909,146.219,112.043z"/>
<path style="fill:#F3F3F3;" d="M90.752,144.043c6.4,10.667,18.133,21.333,32,30.933c-5.333,6.4-9.6,11.733-13.867,18.133
	l-27.733-33.067L90.752,144.043"/>
<path style="fill:#344A5E;" d="M139.819,181.376c0,0,6.4,6.4,9.6,8.533c3.2,3.2,6.4,4.267,6.4,4.267s9.6,20.267,8.533,35.2
	c-2.133,14.933-1.067,49.067-5.333,62.933c-4.267,13.867-4.267,18.133-4.267,24.533c1.067,6.4,10.667,113.067,10.667,113.067
	s-8.533,9.6-13.867-5.333c0,0-9.6-52.267-10.667-82.133c-1.067-29.867,0-48,0-48s12.8-43.733,13.867-54.4
	c0-7.467-10.667-34.133-18.133-52.267c-4.267-9.6-5.333-20.267-4.267-32l0,0l0,0c1.067,7.467,3.2,14.933,6.4,21.333L139.819,181.376
	z"/>
<path style="fill:#415A6B;" d="M58.752,236.843c0,0-5.333,30.933-7.467,41.6c-2.133,10.667-4.267,23.467-6.4,27.733
	c-3.2,4.267-1.067,12.8,0,20.267s20.267,44.8,20.267,44.8l11.733,21.333c0,0-18.133,7.467-25.6,23.467
	c0,0-24.533-30.933-33.067-51.2c-9.6-20.267-16-41.6-16-41.6s-3.2-5.333,0-16c3.2-10.667,9.6-58.667,10.667-66.133
	c1.067-7.467,5.333-22.4,5.333-26.667s4.267-33.067,16-37.333s30.933,5.333,30.933,5.333L58.752,236.843z"/>
<path style="fill:#344A5E;" d="M86.485,152.576c0,0-1.067,2.133,0,7.467c2.133,5.333,30.933,55.467,35.2,66.133
	c3.2,10.667,17.067,54.4,17.067,54.4l7.467,22.4c0,0,1.067,39.467-4.267,52.267c-6.4,12.8-37.333,52.267-49.067,54.4
	s-14.933-11.733-25.6-16c-10.667-4.267-23.467,17.067-27.733,22.4c0,0-8.533-12.8-7.467-30.933
	c1.067-18.133,13.867-50.133,9.6-90.667s17.067-57.6,17.067-57.6s-2.133-64-26.667-60.8c0,0,40.533-12.8,42.667-13.867
	c1.067,0,1.067,0,1.067,0S81.152,155.776,86.485,152.576"/>
<path style="fill:#FFD15C;" d="M72.619,389.376c0,0,4.267,4.267,1.067,12.8c-3.2,8.533-12.8,16-12.8,16s-5.333-5.333-6.4-13.867
	c-1.067-8.533-1.067-8.533-1.067-8.533L72.619,389.376z"/>
<path style="fill:#F3F3F3;" d="M74.752,391.509c0,0-5.333,7.467-10.667,12.8s-10.667,3.2-10.667,3.2S66.219,391.509,74.752,391.509"
	/>
<path style="fill:#415A6B;" d="M1.152,322.176c0,0,6.4,21.333,16,41.6s33.067,51.2,33.067,51.2c8.533-16,25.6-23.467,25.6-23.467
	l-11.733-21.333c0,0-18.133-37.333-20.267-44.8c-1.067-7.467-3.2-14.933,0-20.267c4.267-4.267,6.4-17.067,8.533-27.733
	c2.133-10.667,7.467-41.6,7.467-41.6H12.885c0,1.067,0,2.133,0,2.133c-1.067,7.467-7.467,55.467-10.667,66.133
	C-2.048,315.776,1.152,322.176,1.152,322.176z"/>
<g>
</g>
<g>
</g>
<g>
</g>
<g>
</g>
<g>
</g>
<g>
</g>
<g>
</g>
<g>
</g>
<g>
</g>
<g>
</g>
<g>
</g>
<g>
</g>
<g>
</g>
<g>
</g>
<g>
</g>
</svg>
