<svg id="Layer_35" enable-background="new 0 0 64 64" height="512" viewBox="0 0 64 64" width="512" xmlns="http://www.w3.org/2000/svg"><path d="m14.594 47.827-1.594 7.173 3 3 3-3-1.594-7.173z" fill="#f0bc5e"/><path d="m38.414 30 2.019-2.019-1.414-1.414-2.019 2.019-1.586-1.586 2.019-2.019-1.414-1.414-2.019 2.019-1-1-6.088 6.088c-.321-2.636-1.584-5.091-3.586-6.88-2.334-2.083-5.469-3.075-8.604-2.722-5.061.573-9.122 4.668-9.659 9.738-.283 2.679.411 5.353 1.94 7.507l1.997 2.987v.696c0 .884.172 1.727.472 2.506-5.179 2.497-8.472 7.683-8.472 13.494v5h30v-5c0-4.968-2.408-9.478-6.342-12.243l14.756-14.757zm-29.764 7.183c-1.263-1.78-1.83-3.969-1.599-6.162.438-4.146 3.759-7.493 7.895-7.96.358-.041.713-.061 1.066-.061 2.218 0 4.311.793 5.981 2.286 1.911 1.706 3.007 4.153 3.007 6.714 0 1.896-.587 3.711-1.718 5.276l-1.817 2.724h-4.465v-5h-2v5h-4.466zm2.35 4.817h10c0 2.757-2.243 5-5 5s-5-2.243-5-5zm18 16v3h-3v-8h-2v8h-16v-8h-2v8h-3v-3c0-5.077 2.903-9.601 7.456-11.744 1.281 1.665 3.286 2.744 5.544 2.744s4.263-1.079 5.544-2.744c4.553 2.143 7.456 6.667 7.456 11.744zm-6.108-13.306c-.121-.063-.241-.128-.364-.188.3-.779.472-1.622.472-2.506v-.697l1.925-2.886c1.056-1.461 1.72-3.131 1.964-4.892l6.111-6.111 3.586 3.586z"/><path d="m15 13h2v6h-2z"/><path d="m3.686 17.686h2v6h-2z" transform="matrix(.707 -.707 .707 .707 -13.256 9.375)"/><path d="m24.314 19.687h5.999v2h-5.999z" transform="matrix(.707 -.707 .707 .707 -6.628 25.373)"/><path d="m16 36c-2.206 0-4-1.794-4-4s1.794-4 4-4 4 1.794 4 4-1.794 4-4 4z" fill="#f0bc5e"/><path d="m48 31c-8.271 0-15-6.729-15-15s6.729-15 15-15 15 6.729 15 15-6.729 15-15 15zm0-25c-5.514 0-10 4.486-10 10s4.486 10 10 10 10-4.486 10-10-4.486-10-10-10z" fill="#f0bc5e"/><path d="m48 27c-6.065 0-11-4.935-11-11s4.935-11 11-11 11 4.935 11 11-4.935 11-11 11zm0-20c-4.963 0-9 4.037-9 9s4.037 9 9 9 9-4.037 9-9-4.037-9-9-9z"/><path d="m49 19h-2v-2.414l2.465-2.465c.34-.34.535-.811.535-1.293 0-1.008-.82-1.828-1.828-1.828h-.344c-1.008 0-1.828.82-1.828 1.828v1.172h-2v-1.172c0-2.11 1.718-3.828 3.828-3.828h.344c2.11 0 3.828 1.718 3.828 3.828 0 1.022-.398 1.984-1.121 2.707l-1.879 1.879z"/><path d="m47 21h2v2h-2z"/><path d="m55 33v4h-6v4h-6v4h-6v18h26v-30zm-6 10v18h-4v-18zm-10 4h4v14h-4zm12 14v-22h4v22zm10 0h-4v-26h4z"/></svg>