<svg enable-background="new 0 0 100 100" height="512" viewBox="0 0 100 100" width="512" xmlns="http://www.w3.org/2000/svg"><path d="m31.6088676 65.4324417c.2669334 1.6600494 1.7053413 2.933609 3.4394951 2.933609 1.734169 0 3.1725998-1.2735596 3.4395142-2.9336472-.6122322-.4260483-.5846558-1.0119553-.5846558-1.0119553v-1.8145599h-5.7096786v1.8145599c0 .0000001.0275993.58593-.5846749 1.0119935z" fill="#d6b24e"/><path d="m39.5479126 55.4811058c-.0009804 0-.0019226.3112488-.0028648.3112488-.0607643-2.4748116-2.0598259-4.7913437-4.4966545-4.7913437-2.4368248 0-4.4359264 2.3165321-4.4966526 4.7913437-.0009441 0-.0018864-.3112488-.0028667-.3112488-.4968338 0-.8995571 1.1226578-.8995571 2.1240921s.4027233 1.8131447.8995571 1.8131447v.0647354c0 1.2370262 1.0776272 2.8022079 2.178112 4.0780106 1.2270317 1.4225311 3.4157448 1.4225311 4.6427765 0 1.1005249-1.2758026 2.1781502-2.8409843 2.1781502-4.0780106v-.0647354c.4967957 0 .899559-.8117104.899559-1.8131447s-.4027634-2.1240921-.8995591-2.1240921z" fill="#ffd25a"/><path d="m36.1772652 65.9052658 2.4502716 1.2046127-2.5454178 7.4631272-.7486534-1.7135849-.0665474-6.0224991z" fill="#e6e7e8"/><path d="m46.9839211 68.0819168c-1.9896927 3.3932114-5.3739548 5.8536987-9.362278 6.5998077-.3908348.0799103-.7905083.1421509-1.1902351.1776047l.7283783-2.4515991.6484108-2.8956223.0088921-.0355606.5684967-2.4782791v-.0088882l.1420975-.6306305 1.1192131-1.2435837s6.0490379 1.323494 7.2570572 2.8512726c.0266722.0355682.0621832.071022.0799674.1154785z" fill="#344e5c"/><path d="m37.9114647 64.2210999-2.866066 1.4925384 2.2356224 1.3962402z" fill="#dad7dc"/><path d="m33.9135323 65.9052658-2.4502736 1.2046127 2.5454197 7.4631272.7486534-1.7135849.0665474-6.0224991z" fill="#e6e7e8"/><path d="m33.6689377 74.8593292c-.4086189-.0354538-.8083458-.0976944-1.1991806-.1776047-3.9882717-.746109-7.3725338-3.2065964-9.3622246-6.5998077.0177288-.0444565.0532932-.0799103.0799141-.1154785 1.2080727-1.5277786 7.2571087-2.8512726 7.2571087-2.8512726l1.110323 1.2435837.1509876.6306305v.0088882l.5507183 2.4249268v.0177841l.6750832 2.9667511z" fill="#344e5c"/><path d="m32.1793327 64.2210999 2.866066 1.4925384-2.2356224 1.3962402z" fill="#dad7dc"/><path d="m36.1471596 74.8860092c-.186554.0177765-.3819466.0265656-.5773926.0354538-.1687698.0088882-.3463783.0088882-.5240402.0088882s-.3553238 0-.5240974-.0088882c-.1953888-.0088882-.3908348-.0176773-.5773354-.0354538l.035511-.3997803.1154785-1.5100021.3641624-4.663353.0710754-.9149323-.5329323-1.030304.2308998-.1421509.8172379-.5062561.8171806.5062561.230957.1421509-.5329857 1.030304.0710754.9149323.3642159 4.663353.1154785 1.5100021z" fill="#f37735"/><path d="m34.5216293 74.921463c-.1953888-.0088882-.3908348-.0176773-.5773354-.0354538-.0977478-.0088959-.186554-.0177841-.2753563-.02668-.4086189-.0354538-.8083458-.0976944-1.1991806-.1776047l-2.4693317-4.761055 1.2879314-.7551041-1.4744854-.8082352.6306839-3.2421646 1.7320614-.8882599h.0088882l.0088921.0443497.488533 2.2384262.1332588.5951767.1154785.5418243 1.1636162 5.3295441.2042809.9327164z" fill="#293b44"/><path d="m38.8030434 69.1655655 1.2879829.7551041-2.4693832 4.761055c-.3908348.0799103-.7905083.1421509-1.1902351.1776047-.0888596.0088959-.186554.0177841-.2842484.02668-.186554.0177765-.3819466.0265656-.5773926.0354538l.222065-1.0125198.2043381-.9327164 1.1636162-5.3295441.1154785-.5418243.1332054-.5951767.4974213-2.2827759h.0088921l1.7321129.8882599.6306839 3.2421646z" fill="#293b44"/><path d="m29.7623978 56.8513794c.1696968.6448402.5254612 1.1392593.5718937 2.2376328h.2889633c-.0784168-.4704285-.1922913-1.650425.1922913-3.4360352 0 0 .8715687-.0726471 1.8157864-1.053112 0 0-.2542267.7625237-.8715706 1.1620445 0 0 1.4526291-.4720917 3.1594467-2.1425819 0 0-.145256 1.0167465-1.8157883 2.0336494 0 0 2.3242378-.3631592 3.4863167-1.8884354 0 0-.4720879 1.0531883-1.5978851 1.7068558 0 0 2.2152672-.3631592 3.1957703-2.2515907 0 0 .9442139-.1089325 1.0531845 1.5252762.1089325 1.6342087.0726089 2.1062965.3994446 2.3605232l-.162571 1.9834061h.2054176c.1058769-.5528069.394352-1.9263.6834679-2.1287003 0 0 .9442139-4.5757523-1.0531502-5.4473572 0 0-.689991-3.0141907-5.3383865-1.8883591-4.6484356 1.1257591-4.466856 4.3215256-4.466856 4.3215256s.0726451 2.2153053.2542247 2.9052582z" fill="#344e5c"/><path d="m60.6158447 55.4513016c-.9335823 0-1.7447472-.6210861-2.009697-1.5162849-.4902115-1.6565933-1.1499519-3.2398872-1.959816-4.7303658-.4463539-.8213577-.3129311-1.8346329.3480606-2.4957314l3.1649628-3.1649628-7.7361565-7.7360458-3.164959 3.164856c-.6609917.6609879-1.674324.7944641-2.4956779.3480606-1.4903717-.8097572-3.073719-1.4694443-4.7303123-1.9597626-.8951988-.2648964-1.5162315-1.0760612-1.5162315-2.0096436v-4.4756622h-10.9405289v4.4756622c0 .9335823-.6210861 1.7447472-1.5162849 2.0096436-1.656538.4903183-3.2399406 1.1498985-4.7303104 1.9597626-.8213043.4464035-1.8346367.3129272-2.4956799-.3480606l-3.1649609-3.164856-7.7361536 7.7360458 3.1650171 3.1650696c.6609888.6609917.7944117 1.6742668.3480053 2.4956245-.8098631 1.4904785-1.4695511 3.0737724-1.9597626 4.7303658-.2649488.8951988-1.0761137 1.5162849-2.0097494 1.5162849h-4.4756097v10.9403687h4.4756098c.9336357 0 1.7448006.6210861 2.0097494 1.5163879.4902115 1.6564865 1.1498995 3.2398911 1.9597626 4.7302628.4462976.8212433.3129292 1.8347397-.3480597 2.4956207l-3.1649628 3.1650696 7.7361536 7.7360458 3.1649609-3.164856c.6609898-.6609879 1.6743755-.7943573 2.4956799-.3480606 1.4903698.809761 3.0737724 1.4694443 4.7303104 1.9597626.8951988.2649002 1.5162849 1.0760651 1.5162849 2.0096436v4.4757767h10.9405289v-4.4757767c0-.9335785.6210327-1.7447433 1.5162849-2.0096436 1.6565399-.4903183 3.2398872-1.1500015 4.7302589-1.9597626.8213539-.4462967 1.8346863-.3129272 2.4956779.3480606l3.164959 3.164856 7.7361565-7.7360458-3.1649094-3.1650696c-.6610451-.660881-.7944145-1.6743774-.3480606-2.4956207.809864-1.4903717 1.4696045-3.0737762 1.959816-4.7302628.2648964-.8953018 1.0760612-1.5163879 2.009697-1.5163879h4.4755554v-10.9403686zm-25.5701179 19.3037872c-7.6401386 0-13.8336582-6.1934128-13.8336582-13.8334961 0-7.6401901 6.1935196-13.8337097 13.8336582-13.8337097s13.8336563 6.1935196 13.8336563 13.8337097c0 7.6400833-6.1935196 13.8334961-13.8336563 13.8334961z" fill="#db584d"/><path d="m35.0457268 41.2968521c-10.8383884 0-19.62463 8.7862968-19.62463 19.6247406s8.7862425 19.6245193 19.62463 19.6245193 19.62463-8.7860794 19.62463-19.6245193-8.7862435-19.6247406-19.62463-19.6247406zm0 36.9336319c-9.5594578 0-17.3089466-7.7494888-17.3089466-17.3088913 0-9.5596199 7.7494888-17.3090019 17.3089466-17.3090019s17.3089447 7.749382 17.3089447 17.3090019c0 9.5594025-7.7494889 17.3088913-17.3089447 17.3088913z" fill="#ffd25a"/><path d="m91.7468262 45.3388748c.1199265-.9860611.1380386-1.9905586.0480347-2.9983063-.0486298-.5446434.2593155-1.0576248.7677383-1.258873l2.4374008-.9643745-2.3574829-5.9581184-2.4374008.9644852c-.5084229.2010269-1.0840225.037735-1.4211884-.3927345-.623909-.796524-1.3243637-1.516716-2.0866241-2.1538506-.4200592-.3510971-.5657349-.9316311-.3482285-1.4340954l1.041687-2.4056282-5.880043-2.5460434-1.0416336 2.4055176c-.2175674.5024662-.7406845.7934914-1.2841415.7273483-.9861679-.1199226-1.9906082-.1379223-2.9984131-.0479259-.5445862.0485764-1.0575714-.2593632-1.2587585-.7677917l-.9644318-2.437397-5.9581757 2.3574848.9644318 2.437397c.2011948.5084267.037735 1.0839729-.3926773 1.4211903-.796524.6239052-1.5166626 1.3243637-2.153801 2.086628-.3510971.4200554-.9317398.5657883-1.4341507.3481674l-2.405571-1.0415764-2.5460968 5.8800468 2.4056282 1.0415764c.5024109.217514.7933807.7405777.7272911 1.2841377-.1198692.9861717-.1379738 1.9906654-.0479774 2.9984131.0486298.5445366-.2593117 1.0576248-.7677956 1.2587662l-2.437397.9644814 2.3574867 5.9580116 2.4373932-.9643784c.5084305-.2011375 1.0840302-.0377312 1.421196.3927345.6239624.7965279 1.3243637 1.5167198 2.0865707 2.1538544.4200592.3510933.5657883.9316292.3482208 1.4340935l-1.0416336 2.4056282 5.8800507 2.5460434 1.0416336-2.4056282c.2175674-.5023537.7406845-.7933807 1.2841339-.7272377.9861755.119812 1.9906158.1379204 2.9983597.047924.5446472-.0485764 1.0576859.2593651 1.2588196.7676849l.9644318 2.4375038 5.958168-2.3574829-.9644241-2.437397c-.2011948-.5084267-.037735-1.0839729.3926773-1.4211922.796524-.6239052 1.5166626-1.3243637 2.153801-2.0866241.3511505-.4200592.9317322-.5657883 1.4341431-.348278l2.405632 1.0417938 2.5460434-5.8801575-2.4055786-1.0415764c-.5024034-.2175103-.7934342-.7407952-.7273484-1.2842446zm-10.5585785 7.7000466c-5.2059937 2.0599518-11.0961838-.4905396-13.1560822-5.6966934-2.0598984-5.2059402.490593-11.0960732 5.69664-13.1560249 5.2059937-2.059845 11.0961838.4905357 13.1560822 5.6966934 2.0598984 5.2059402-.490593 11.0960693-5.69664 13.1560249z" fill="#467080"/><path d="m62.8845482 24.1430016c.1336861-.7266693.1926117-1.4715824.1714249-2.2239037-.0114479-.4065342.2404137-.7734318.6270065-.8997669l1.85326-.6056786-1.4804535-4.5302-1.8532562.6055822c-.3865929.1263351-.8065338-.0210533-1.0373764-.3558731-.4271317-.619648-.9145775-1.1859665-1.451622-1.6935015-.2959633-.279748-.3778229-.7174072-.1935806-1.0805683l.882267-1.7388077-4.2501984-2.1565065-.8822861 1.7387581c-.184269.3632078-.585804.5555353-.9862976.481864-.7267418-.1336937-1.4716301-.1926146-2.2239265-.1714506-.4065361.011445-.7734604-.2403669-.8997917-.6269836l-.6056328-1.8532848-4.5302696 1.4804487.605629 1.8532848c.1263313.3866167-.0210762.8065071-.355896 1.0373507-.6196251.4271364-1.1860161.9145746-1.6935501 1.4515963-.2796974.2959652-.7173347.3778515-1.0804977.1936083l-1.7388306-.882267-2.156559 4.2502422 1.7388382.8822193c.3631554.1842918.5555344.585804.4818382.9863205-.1336708.7267685-.1925964 1.4716816-.1714287 2.2239532.0114441.4065342-.2404175.7734795-.6270103.8998146l-1.8532562.6055832 1.480423 4.5302944 1.8532867-.6056786c.3865929-.1263351.8065071.021101 1.0373726.3559227.4271355.619648.9145508 1.1860123 1.4515724 1.6935463.2959671.2796993.3778458.7174091.1936073 1.0805206l-.882267 1.7388096 4.2502213 2.1565552.882267-1.7388573c.1842651-.3631096.5858231-.5554848.9863167-.4817657.7267227.1336441 1.4716339.1925659 2.2239075.1713524.406559-.0113945.7734795.2404671.8998146.6270332l.605629 1.8532867 4.5302734-1.4804497-.605629-1.8532829c-.126339-.38657.0210495-.8065109.355896-1.0373516.6196251-.4271851 1.1859894-.9145756 1.6935234-1.4515972.2797241-.2959652.7173615-.3778992 1.0805206-.1936073l1.7388039.8823128 2.1565628-4.2502422-1.7388077-.8823147c-.3631669-.1841927-.5555383-.5858021-.4818383-.9863205zm-8.1876946 5.2385997c-3.9583855 1.2935143-8.2159233-.8667374-9.509491-4.8250809-1.2935829-3.9584408.8666916-8.2159767 4.8250847-9.5095406s8.2159271.8666906 9.5095177 4.8250828c1.2935601 3.9584409-.8667145 8.2159272-4.8251114 9.5095387z" fill="#4388b9"/></svg>