<svg xmlns="http://www.w3.org/2000/svg" fill="ffffff" height="27" width="30" style=""><rect id="backgroundrect" width="100%" height="100%" x="0" y="0" fill="none" stroke="none"/><g class="currentLayer" style=""><title>Layer 1</title><path d="M1.39999 1.70001H6.60001" stroke="#ffffff" stroke-linecap="round" stroke-miterlimit="10" stroke-width="2" id="svg_1" class="selected" fill="#ffffff" fill-opacity="1" stroke-opacity="1"/><path d="M6.60001 1.70001L11 18.9" stroke="#ffffff" stroke-linecap="round" stroke-miterlimit="10" stroke-width="2" id="svg_2" class="" stroke-opacity="1"/><path d="M11.8 18.9H28.3" stroke="#ffffff" stroke-linecap="round" stroke-miterlimit="10" stroke-width="2" id="svg_3" class="" stroke-opacity="1"/><path d="M13.718367348611356,25.618367348611354 C15.375267348611354,25.618367348611354 16.718367348611356,24.275267348611354 16.718367348611356,22.618367348611354 C16.718367348611356,20.961567348611354 15.375267348611354,19.618367348611354 13.718367348611356,19.618367348611354 C12.061467348611355,19.618367348611354 10.718367348611356,20.961567348611354 10.718367348611356,22.618367348611354 C10.718367348611356,24.275267348611354 12.061467348611355,25.618367348611354 13.718367348611356,25.618367348611354 z" stroke="#ffffff" stroke-linecap="round" stroke-miterlimit="10" stroke-width="2" id="svg_4" class="" fill-opacity="1" fill="#204051" stroke-opacity="1"/><path d="M25.3 25.7C26.9568 25.7 28.3 24.3569 28.3 22.7C28.3 21.0432 26.9568 19.7 25.3 19.7C23.6431 19.7 22.3 21.0432 22.3 22.7C22.3 24.3569 23.6431 25.7 25.3 25.7Z" stroke="#ffffff" stroke-linecap="round" stroke-miterlimit="10" stroke-width="2" id="svg_5" class="" fill-opacity="1" fill="#204051" stroke-opacity="1"/><path d="M25.7,15.171428596973419 H11.3 C10.7,15.171428596973419 10.1,14.771428596973418 10,14.171428596973419 L8.1,7.471438596973419 C7.9,6.571438596973419 8.49999,5.771438596973419 9.39999,5.771438596973419 H27.5 C28.4,5.771438596973419 29.1,6.671438596973419 28.8,7.471438596973419 L26.9,14.171428596973419 C26.9,14.771428596973418 26.4,15.171428596973419 25.7,15.171428596973419 z" stroke="#ffffff" stroke-linecap="round" stroke-miterlimit="10" stroke-width="2" id="svg_6" class="" stroke-opacity="1" fill="#204051" fill-opacity="1"/></g></svg>